<svg xmlns="http://www.w3.org/2000/svg" width="101.5" height="101.5"><path fill="#FFF" d="M48.914 45.324h2.066v36.675h-2.066V45.324z"/><path stroke="#FFF" stroke-width="3" fill="none" d="M67.346 29.489c0 2.617-1.759 4.805-4.166 5.851 1.178 1.896 1.16 4.82-1.026 6.529-1.876 1.85-4.69 2.531-6.922 1.016-.747 2.379-2.97 4.515-5.628 4.515-2.654 0-4.874-2.13-5.624-4.503-2.234 1.683-5.054.842-6.52-1.011-2.296-1.586-2.618-4.641-1.19-6.476-2.662-1.102-4.432-3.296-4.432-5.921 0-2.62 1.764-4.811 4.312-5.547-1.306-2.202-.98-4.975 1.31-6.825 1.466-1.853 4.286-2.172 6.52-1.011a5.888 5.888 0 015.624-4.107 5.89 5.89 0 015.628 4.119c2.232-1.155 5.046-.834 6.922 1.016 2.126 1.848 2.202 4.615 1.037 6.815 2.401.743 4.155 2.928 4.155 5.54zm-11.142-2.688c-.882-.272-1.72-.061-2.419-1.416.015-.696-1.169-1.529-1.444-2.408a5.922 5.922 0 01-2.737.69 5.916 5.916 0 01-2.748-.696 5.754 5.754 0 01-1.44 2.397c-.706 1.262-1.551 1.152-2.443 1.423.433.81.701 1.719.701 2.698 0 .988-.273 1.904-.712 2.72.895.27 1.745.728 2.454 1.426.702.693 1.165 1.522 1.44 2.685.825-.718 1.75-.984 2.748-.984.993 0 1.915.264 2.737.924.275-1.113 1.459-1.946 1.444-2.642.702-.692 1.544-1.148 2.431-1.419-.436-.813-.706-1.726-.706-2.71 0-.975.265-1.88.694-2.688z"/><path stroke="#FFF" stroke-width="3" fill="none" d="M49.592 18.995c5.88 0 10.646 4.702 10.646 10.501 0 5.8-4.766 10.502-10.646 10.502-5.88 0-10.647-4.702-10.647-10.502 0-5.799 4.767-10.501 10.647-10.501zm.877 49.7l-1.045-1.044 13.947-13.827 1.045 1.044-13.947 13.827z"/><path stroke="#FFF" stroke-width="3" fill="none" d="M50.631 67.115l-1.045 1.744-17.434-17.284 1.045-1.744 17.434 17.284zm27.364-25.168s-.885 14.419-5.239 18.637c-4.255 4.219-10.596 4.629-14.484.917-3.745-3.713-3.331-10.142.924-14.36 4.255-4.219 18.799-5.194 18.799-5.194z"/><path stroke="#FFF" stroke-width="3" fill="none" d="M28.997 48.398s.721 10.51 3.838 13.585c3.116 3.587 7.867 3.374 10.609.668 2.743-2.706 2.44-7.392-.677-10.467s-13.77-3.786-13.77-3.786z"/></svg>