<svg xmlns="http://www.w3.org/2000/svg" width="101.5" height="101.5"><path stroke="#FFF" stroke-width="3" fill="none" d="M80.21 51.299c-.962 0-1.589-.627-1.589-1.4 0-.774.627-1.4 1.589-1.4.584 0 1.211.626 1.211 1.4 0 .773-.627 1.4-1.211 1.4zm-.85-7.841a1.4 1.4 0 11-.725-2.705 1.4 1.4 0 01.725 2.705zm-.005 12.881c.747.2 1.19.968.99 2.201-.2.26-.967.704-1.714.89-.747-.587-1.19-.67-.99-2.101a1.4 1.4 0 011.714-.99zM76.692 36.55c-.472-.108-1.526-.338-1.913-1.007-.386-.67-.157-1.373.513-1.913a1.4 1.4 0 011.912.513c.387.669.157 1.526-.512 2.407zm-.009 27.19a1.4 1.4 0 11-1.912.512c.386-.669 1.359-.899 1.912-.512zm-6.464-34.144c-.547-.106-.547-1.434 0-1.98a8.849 8.849 0 001.979 0c.547.546.547 1.874 0 1.98a1.4 1.4 0 01-1.979 0zm1.967 40.601a1.4 1.4 0 11-1.979 1.98 1.4 1.4 0 011.979-1.98zM64.274 25.31c-.67-.665-.899-1.521-.512-2.191.386-.67 1.638-.899 1.912-.513a1.4 1.4 0 01.512 1.913c-.386.67-1.242.899-1.912.791zm-.015 49.447a1.401 1.401 0 111.4 2.427 1.401 1.401 0 01-1.4-2.427zm-6.908-52.596a1.4 1.4 0 01-.99-1.714c.2-.747.968-1.191 2.389-.99.072.2.515.967.9 1.714-.785.747-.67 1.19-2.299.99zm-.017 55.462c1.476-.2 1.515.243 2.156.99-.241.747-.684 1.515-.9 1.715-1.278.2-2.046.522-2.246-.99a1.4 1.4 0 01.99-1.715zm-7.413 3.758a1.4 1.4 0 110-2.8 1.4 1.4 0 010 2.8zm0-60.2a1.4 1.4 0 01-1.4-1.4c0 .019.626-1.4 1.4-1.4.773 0 1.4 1.419 1.4 1.4a1.4 1.4 0 01-1.4 1.4zM41.77 80.31c-.54-.2-1.19-.968-.99-1.715a1.4 1.4 0 012.705.725c-.201 1.35-.968 1.19-1.715.99zm.708-58.131a1.4 1.4 0 01-1.715-.99c-.2-.747.837-1.514.99-1.714a1.4 1.4 0 11.725 2.704zm-8.304 54.987a1.399 1.399 0 01-.512-1.912c.818-.67 1.242-.899 1.912-.513.67.387.899 1.243 1.286 1.913-1.16.669-2.016.899-2.686.512zm1.385-51.696c-.67-.036-1.229-.265-1.912-.935-.387-.67-.158-.635.512-1.912.67-.387 1.526-.158 2.561.512-.262.67-.491 1.526-1.161 2.335zm-7.908 46.694a1.4 1.4 0 010-1.98c.547-.547 2.189-.547 1.98 0a1.401 1.401 0 010 1.98c.209.546-1.433.546-1.98 0zm-.012-42.555c.281.011.281-1.433 0-1.98.546.191 2.081.191 1.979 0 .547.547.547 1.991 0 1.98.102.546-1.433.546-1.979 0zm-3.082 36.546c-.67.387-1.247.157-1.913-.512a1.401 1.401 0 01.513-1.913c.669-.386 1.526-.157 2.533.513-.234.669-.464 1.526-1.133 1.912zM23.148 36.65c-.669-.972-.899-1.828-.512-2.498.584-.67 1.243-.899 1.912-.512.67.62.899 1.243 1.062 1.912-.936.67-1.792.899-2.462 1.098zm-1.937 22.74c-.747-.151-1.514-.594-1.715-.9-.2-1.188.244-1.956.99-2.156.747-.2 1.614.243 1.715.99.2 1.386-.243 1.515-.99 2.066zm-.729-15.927a1.4 1.4 0 01-.99-1.715c.2-.648.968-1.19 1.715-.99a1.401 1.401 0 01-.725 2.705zm.739 6.436a1.4 1.4 0 01-1.4 1.4c-.341 0-1.4-.627-1.4-1.4 0-.774 1.059-1.4 1.4-1.4a1.4 1.4 0 011.4 1.4z"/><path stroke="#FFF" stroke-width="3" fill="none" d="M75.999 50.999v-2h9v2h-9zm-27 25h2v9h-2v-9zm0-61h2v9h-2v-9zm-34 34h9v2h-9v-2zm34 2h-17v-2h17v-23h2v25h-2z"/><path stroke="#FFF" stroke-width="3" fill="none" d="M50.21 46.499c1.744 0 3.311 2.161 3.311 3.5 0 1.933-1.567 3.5-3.311 3.5-1.33 0-3.689-1.567-3.689-3.5 0-1.339 2.359-3.5 3.689-3.5z"/></svg>