<svg xmlns="http://www.w3.org/2000/svg" width="63.5" height="72.5"><g stroke="#fff" stroke-width="3" fill="none"><path d="M8.785 52.244c-9.726-9.731-9.726-25.509 0-35.24C24.274 1.506 59.5 1.499 59.5 1.499s-.007 35.246-15.496 50.745c-9.726 9.731-25.494 9.731-35.219 0zM4.437 69.099s-5.88-47.183 54.329-66.864"/><path d="M35.272 15.461v-.735h-.734V8.113h1.468v5.878h15.418v1.47H35.272zm9.544 13.226H19.12v-.735h-.734V13.991h1.468v13.226h24.962v1.47zm-5.873 16.165H10.31v-.735H8.842V25.013h1.468v18.369h28.633v1.47z"/></g></svg>