<svg xmlns="http://www.w3.org/2000/svg" width="64.5" height="68.5"><g stroke="#fff" stroke-width="3" fill="none"><path d="M59.435 35.969L32.222 63.015a6.97 6.97 0 01-3.629 1.911 6.99 6.99 0 01-2.842.578l-16.969-.155c-3.904-.035-7.099-3.21-7.134-7.091l-.156-16.864c-.021-2.23 1.027-4.184 2.645-5.457.129-.152.234-.316.378-.459L31.727 8.432a7.03 7.03 0 019.896 0l17.812 17.703a6.924 6.924 0 010 9.834zM18.327 48.266a4.919 4.919 0 00-6.926 0 4.846 4.846 0 000 6.884 4.919 4.919 0 006.926 0 4.846 4.846 0 000-6.884z"/><path d="M16.719 57.829S5.523 47.745 5.523 26.535 10.421 1.5 12.52 1.5s5.948 4.172 6.298 21.558"/></g></svg>