<svg xmlns="http://www.w3.org/2000/svg" width="19" height="25"><path fill-rule="evenodd" d="M18.599 23.235l-.004.001c.001.002-1.83 1.077-1.83 1.077l-3.836-6.462 1.83-1.079c.397-.231.907-.107 1.143.858.002.02 2.989 5.23 2.989 5.23l-.001.04c.225-.428.29.087-.291.335zM4.108 15.836C-1.277 6.508 1.6 2.392 2.617 1.633l3.926 6.601c-.946.557-.033 2.206.07 3.036.009.059 2.73 4.621 2.753 4.636 1.407 1.899 2.169 2.773 3.073 2.242l3.826 6.444c-1.083.666-6.483 1.075-12.157-8.756zm4.766-8.974l-.001.003c-.001.003-1.443 1.076-1.443 1.076L3.122 1.336l1.83-1.08C5.347.25 5.858.148 6.95.548c.01.001 2.219 5.168 2.219 5.168l-.001.005a.827.827 0 01-.294 1.141z"/></svg>